<svg enable-background="new 0 0 512 512" height="512" viewBox="0 0 512 512" width="512" xmlns="http://www.w3.org/2000/svg"><g id="_x32_6_For_Sale"><g><path d="m489.634 83.409v163.794c0 21.354-17.354 38.708-38.709 38.708h-389.847c-21.355 0-38.709-17.354-38.709-38.708v-163.794c0-21.355 17.354-38.709 38.709-38.709h389.847c21.354.001 38.709 17.354 38.709 38.709z" fill="#b0582a"/><path d="m285.426 37.982v6.718h-58.849v-6.718c0-2.93.404-5.759 1.263-8.436 3.587-12.123 14.851-20.963 28.187-20.963 8.082 0 15.457 3.284 20.761 8.638 3.435 3.385 6.011 7.577 7.425 12.326.808 2.676 1.213 5.505 1.213 8.435z" fill="#faa629"/><path d="m285.426 285.904v188.114c0 16.215-13.184 29.399-29.399 29.399-8.133 0-15.508-3.283-20.812-8.638-5.354-5.304-8.638-12.628-8.638-20.761v-188.114z" fill="#faa629"/><path d="m285.426 37.982v6.718h-58.849v-6.718c0-2.93.404-5.759 1.263-8.436h56.373c.808 2.677 1.213 5.506 1.213 8.436z" opacity=".1"/><path d="m226.577 285.904h58.849v15.154h-58.849z" opacity=".1"/><g fill="#25294f"><path d="m450.922 39.649h-160.445v-1.667c0-19.05-15.477-34.45-34.452-34.45-19.027 0-34.501 15.455-34.501 34.45v1.667h-160.446c-24.127 0-43.761 19.631-43.761 43.761v163.793c0 24.13 19.633 43.761 43.761 43.761h160.446v183.056c0 19.04 15.466 34.45 34.501 34.45 18.997 0 34.452-15.455 34.452-34.45v-183.057h160.446c24.127 0 43.761-19.631 43.761-43.761v-163.793c-.001-24.13-19.634-43.76-43.762-43.76zm-219.296-1.668c0-13.425 10.946-24.347 24.399-24.347 13.409 0 24.349 10.923 24.349 24.347v1.667h-48.748zm48.748 436.038c0 13.425-10.922 24.347-24.349 24.347-13.451 0-24.399-10.9-24.399-24.347v-183.056h48.748zm204.206-226.817c0 18.558-15.1 33.658-33.658 33.658-58.483 0-331.317-.002-389.845 0-18.558 0-33.658-15.1-33.658-33.658v-163.793c0-18.558 15.1-33.658 33.658-33.658h389.845c18.558 0 33.658 15.1 33.658 33.658z"/><path d="m111.804 116.342h50.183c2.792 0 5.051-2.262 5.051-5.051s-2.259-5.051-5.051-5.051h-50.183c-17.69 0-32.084 14.392-32.084 32.082s14.394 32.082 32.084 32.082h23.151c12.12 0 21.981 9.861 21.981 21.981s-9.861 21.979-21.981 21.979h-50.184c-2.792 0-5.051 2.262-5.051 5.051 0 2.79 2.259 5.051 5.051 5.051h50.183c17.69 0 32.084-14.392 32.084-32.082 0-17.692-14.394-32.084-32.084-32.084h-23.151c-12.12 0-21.981-9.859-21.981-21.979s9.861-21.979 21.982-21.979z"/><path d="m230.496 109.28c-.779-1.897-2.624-3.135-4.676-3.135s-3.897 1.238-4.676 3.137l-44.338 108.218c-1.056 2.58.178 5.53 2.762 6.588 2.565 1.048 5.525-.175 6.59-2.76l11.642-28.417h56.041l11.644 28.419c1.055 2.563 3.986 3.824 6.59 2.758 2.585-1.058 3.818-4.008 2.762-6.59zm-28.556 73.529 23.88-58.288 23.882 58.288z"/><path d="m348.637 214.363h-48.121v-103.166c0-2.79-2.259-5.051-5.051-5.051s-5.051 2.262-5.051 5.051v108.218c0 2.79 2.259 5.051 5.051 5.051h53.173c2.792 0 5.051-2.262 5.051-5.051-.001-2.79-2.26-5.052-5.052-5.052z"/><path d="m427.229 116.248c2.792 0 5.051-2.262 5.051-5.051s-2.259-5.051-5.051-5.051h-53.168c-2.792 0-5.051 2.262-5.051 5.051v108.218c0 2.79 2.259 5.051 5.051 5.051h53.168c2.792 0 5.051-2.262 5.051-5.051 0-2.79-2.259-5.051-5.051-5.051h-48.116v-44.005h48.116c2.792 0 5.051-2.262 5.051-5.051s-2.259-5.051-5.051-5.051h-48.116v-44.007h48.116z"/></g></g></g></svg>